<mxfile host="app.diagrams.net" modified="2023-05-12T03:26:31.188Z" agent="Mozilla/5.0 (Windows NT 10.0; Win64; x64) AppleWebKit/537.36 (KHTML, like Gecko) Chrome/113.0.0.0 Safari/537.36" etag="Ew4CXrsxZiyChqMCRq9D" version="21.2.9" type="device">
  <diagram name="Page-1" id="cMLY1CoPsoS9Ke2ZEgan">
    <mxGraphModel dx="1352" dy="1436" grid="1" gridSize="10" guides="1" tooltips="1" connect="1" arrows="1" fold="1" page="1" pageScale="1" pageWidth="850" pageHeight="1100" math="0" shadow="0">
      <root>
        <mxCell id="0" />
        <mxCell id="1" parent="0" />
        <mxCell id="wTbuUublP3CUo9RuaERG-1" value="Student" style="swimlane;whiteSpace=wrap;html=1;fillColor=#fff2cc;strokeColor=#d6b656;" parent="1" vertex="1">
          <mxGeometry x="525" y="128" width="195" height="122" as="geometry">
            <mxRectangle x="320" y="210" width="90" height="30" as="alternateBounds" />
          </mxGeometry>
        </mxCell>
        <mxCell id="wTbuUublP3CUo9RuaERG-7" value="name" style="text;html=1;align=center;verticalAlign=middle;resizable=0;points=[];autosize=1;strokeColor=none;fillColor=none;" parent="wTbuUublP3CUo9RuaERG-1" vertex="1">
          <mxGeometry x="70" y="50" width="50" height="30" as="geometry" />
        </mxCell>
        <mxCell id="6YYBpAp1T_IyO7PGqdv9-1" value="bronco_id" style="text;html=1;align=center;verticalAlign=middle;resizable=0;points=[];autosize=1;strokeColor=none;fillColor=none;" parent="wTbuUublP3CUo9RuaERG-1" vertex="1">
          <mxGeometry x="55" y="30" width="80" height="30" as="geometry" />
        </mxCell>
        <mxCell id="6YYBpAp1T_IyO7PGqdv9-3" value="course" style="text;html=1;align=center;verticalAlign=middle;resizable=0;points=[];autosize=1;strokeColor=none;fillColor=none;" parent="wTbuUublP3CUo9RuaERG-1" vertex="1">
          <mxGeometry x="65" y="80" width="60" height="30" as="geometry" />
        </mxCell>
        <mxCell id="ZKemoDgkjOs0aR_X4RYM-13" style="edgeStyle=orthogonalEdgeStyle;rounded=0;orthogonalLoop=1;jettySize=auto;html=1;exitX=0.5;exitY=0;exitDx=0;exitDy=0;endArrow=block;endFill=0;" parent="1" source="wTbuUublP3CUo9RuaERG-3" edge="1">
          <mxGeometry relative="1" as="geometry">
            <mxPoint x="380" y="530" as="targetPoint" />
            <Array as="points">
              <mxPoint x="260" y="560" />
              <mxPoint x="381" y="560" />
            </Array>
          </mxGeometry>
        </mxCell>
        <mxCell id="wTbuUublP3CUo9RuaERG-3" value="Book" style="swimlane;whiteSpace=wrap;html=1;fillColor=#fff2cc;strokeColor=#d6b656;" parent="1" vertex="1">
          <mxGeometry x="160" y="600" width="200" height="150" as="geometry">
            <mxRectangle x="320" y="210" width="90" height="30" as="alternateBounds" />
          </mxGeometry>
        </mxCell>
        <mxCell id="ZKemoDgkjOs0aR_X4RYM-4" value="pages" style="text;html=1;align=center;verticalAlign=middle;resizable=0;points=[];autosize=1;strokeColor=none;fillColor=none;" parent="wTbuUublP3CUo9RuaERG-3" vertex="1">
          <mxGeometry x="60" y="30" width="60" height="30" as="geometry" />
        </mxCell>
        <mxCell id="ZKemoDgkjOs0aR_X4RYM-5" value="publisher" style="text;html=1;align=center;verticalAlign=middle;resizable=0;points=[];autosize=1;strokeColor=none;fillColor=none;" parent="wTbuUublP3CUo9RuaERG-3" vertex="1">
          <mxGeometry x="55" y="70" width="70" height="30" as="geometry" />
        </mxCell>
        <mxCell id="ZKemoDgkjOs0aR_X4RYM-6" value="publication_date" style="text;html=1;align=center;verticalAlign=middle;resizable=0;points=[];autosize=1;strokeColor=none;fillColor=none;" parent="wTbuUublP3CUo9RuaERG-3" vertex="1">
          <mxGeometry x="35" y="110" width="110" height="30" as="geometry" />
        </mxCell>
        <mxCell id="ZKemoDgkjOs0aR_X4RYM-14" style="edgeStyle=orthogonalEdgeStyle;rounded=0;orthogonalLoop=1;jettySize=auto;html=1;exitX=0.5;exitY=0;exitDx=0;exitDy=0;entryX=0.75;entryY=1;entryDx=0;entryDy=0;endArrow=block;endFill=0;" parent="1" source="wTbuUublP3CUo9RuaERG-4" target="wTbuUublP3CUo9RuaERG-11" edge="1">
          <mxGeometry relative="1" as="geometry">
            <Array as="points">
              <mxPoint x="605" y="560" />
              <mxPoint x="463" y="560" />
            </Array>
          </mxGeometry>
        </mxCell>
        <mxCell id="wTbuUublP3CUo9RuaERG-4" value="Documentary" style="swimlane;whiteSpace=wrap;html=1;fillColor=#fff2cc;strokeColor=#d6b656;" parent="1" vertex="1">
          <mxGeometry x="510" y="600" width="190" height="150" as="geometry">
            <mxRectangle x="320" y="210" width="90" height="30" as="alternateBounds" />
          </mxGeometry>
        </mxCell>
        <mxCell id="ZKemoDgkjOs0aR_X4RYM-11" value="length" style="text;html=1;align=center;verticalAlign=middle;resizable=0;points=[];autosize=1;strokeColor=none;fillColor=none;" parent="wTbuUublP3CUo9RuaERG-4" vertex="1">
          <mxGeometry x="65" y="40" width="60" height="30" as="geometry" />
        </mxCell>
        <mxCell id="ZKemoDgkjOs0aR_X4RYM-12" value="release_date" style="text;html=1;align=center;verticalAlign=middle;resizable=0;points=[];autosize=1;strokeColor=none;fillColor=none;" parent="wTbuUublP3CUo9RuaERG-4" vertex="1">
          <mxGeometry x="50" y="90" width="90" height="30" as="geometry" />
        </mxCell>
        <mxCell id="ZKemoDgkjOs0aR_X4RYM-16" style="edgeStyle=orthogonalEdgeStyle;rounded=0;orthogonalLoop=1;jettySize=auto;html=1;exitX=1;exitY=0.5;exitDx=0;exitDy=0;entryX=0;entryY=0.5;entryDx=0;entryDy=0;startArrow=diamondThin;startFill=0;endArrow=none;endFill=0;" parent="1" source="wTbuUublP3CUo9RuaERG-5" target="wTbuUublP3CUo9RuaERG-1" edge="1">
          <mxGeometry relative="1" as="geometry" />
        </mxCell>
        <mxCell id="ZKemoDgkjOs0aR_X4RYM-17" style="edgeStyle=orthogonalEdgeStyle;rounded=0;orthogonalLoop=1;jettySize=auto;html=1;exitX=0.5;exitY=1;exitDx=0;exitDy=0;entryX=0.5;entryY=0;entryDx=0;entryDy=0;startArrow=diamondThin;startFill=0;endArrow=none;endFill=0;" parent="1" source="wTbuUublP3CUo9RuaERG-5" target="wTbuUublP3CUo9RuaERG-11" edge="1">
          <mxGeometry relative="1" as="geometry" />
        </mxCell>
        <mxCell id="wTbuUublP3CUo9RuaERG-5" value="Loan" style="swimlane;whiteSpace=wrap;html=1;fillColor=#fff2cc;strokeColor=#d6b656;" parent="1" vertex="1">
          <mxGeometry x="150" y="110" width="180" height="110" as="geometry">
            <mxRectangle x="320" y="210" width="90" height="30" as="alternateBounds" />
          </mxGeometry>
        </mxCell>
        <mxCell id="wTbuUublP3CUo9RuaERG-8" value="number" style="text;html=1;align=center;verticalAlign=middle;resizable=0;points=[];autosize=1;strokeColor=none;fillColor=none;" parent="wTbuUublP3CUo9RuaERG-5" vertex="1">
          <mxGeometry x="55" y="30" width="60" height="30" as="geometry" />
        </mxCell>
        <mxCell id="wTbuUublP3CUo9RuaERG-9" value="date" style="text;html=1;align=center;verticalAlign=middle;resizable=0;points=[];autosize=1;strokeColor=none;fillColor=none;" parent="wTbuUublP3CUo9RuaERG-5" vertex="1">
          <mxGeometry x="60" y="55" width="50" height="30" as="geometry" />
        </mxCell>
        <mxCell id="wTbuUublP3CUo9RuaERG-10" value="due_date" style="text;html=1;align=center;verticalAlign=middle;resizable=0;points=[];autosize=1;strokeColor=none;fillColor=none;" parent="wTbuUublP3CUo9RuaERG-5" vertex="1">
          <mxGeometry x="55" y="78" width="70" height="30" as="geometry" />
        </mxCell>
        <mxCell id="wTbuUublP3CUo9RuaERG-11" value="Item" style="swimlane;whiteSpace=wrap;html=1;fillColor=#fff2cc;strokeColor=#d6b656;" parent="1" vertex="1">
          <mxGeometry x="320" y="320" width="190" height="210" as="geometry">
            <mxRectangle x="320" y="210" width="90" height="30" as="alternateBounds" />
          </mxGeometry>
        </mxCell>
        <mxCell id="wTbuUublP3CUo9RuaERG-12" value="code" style="text;html=1;align=center;verticalAlign=middle;resizable=0;points=[];autosize=1;strokeColor=none;fillColor=none;" parent="wTbuUublP3CUo9RuaERG-11" vertex="1">
          <mxGeometry x="65" y="25" width="50" height="30" as="geometry" />
        </mxCell>
        <mxCell id="wTbuUublP3CUo9RuaERG-13" value="title" style="text;html=1;align=center;verticalAlign=middle;resizable=0;points=[];autosize=1;strokeColor=none;fillColor=none;" parent="wTbuUublP3CUo9RuaERG-11" vertex="1">
          <mxGeometry x="70" y="55" width="40" height="30" as="geometry" />
        </mxCell>
        <mxCell id="wTbuUublP3CUo9RuaERG-14" value="description" style="text;html=1;align=center;verticalAlign=middle;resizable=0;points=[];autosize=1;strokeColor=none;fillColor=none;" parent="wTbuUublP3CUo9RuaERG-11" vertex="1">
          <mxGeometry x="50" y="78" width="80" height="30" as="geometry" />
        </mxCell>
        <mxCell id="ZKemoDgkjOs0aR_X4RYM-1" value="daily_price" style="text;html=1;align=center;verticalAlign=middle;resizable=0;points=[];autosize=1;strokeColor=none;fillColor=none;" parent="wTbuUublP3CUo9RuaERG-11" vertex="1">
          <mxGeometry x="50" y="108" width="80" height="30" as="geometry" />
        </mxCell>
        <mxCell id="ZKemoDgkjOs0aR_X4RYM-2" value="status" style="text;html=1;align=center;verticalAlign=middle;resizable=0;points=[];autosize=1;strokeColor=none;fillColor=none;" parent="wTbuUublP3CUo9RuaERG-11" vertex="1">
          <mxGeometry x="60" y="138" width="60" height="30" as="geometry" />
        </mxCell>
        <mxCell id="ZKemoDgkjOs0aR_X4RYM-10" value="location" style="text;html=1;align=center;verticalAlign=middle;resizable=0;points=[];autosize=1;strokeColor=none;fillColor=none;" parent="wTbuUublP3CUo9RuaERG-11" vertex="1">
          <mxGeometry x="60" y="168" width="60" height="30" as="geometry" />
        </mxCell>
        <mxCell id="ZKemoDgkjOs0aR_X4RYM-21" value="1" style="text;html=1;align=center;verticalAlign=middle;resizable=0;points=[];autosize=1;strokeColor=none;fillColor=none;" parent="1" vertex="1">
          <mxGeometry x="480" y="128" width="30" height="30" as="geometry" />
        </mxCell>
        <mxCell id="ZKemoDgkjOs0aR_X4RYM-22" value="1" style="text;html=1;align=center;verticalAlign=middle;resizable=0;points=[];autosize=1;strokeColor=none;fillColor=none;" parent="1" vertex="1">
          <mxGeometry x="335" y="128" width="30" height="30" as="geometry" />
        </mxCell>
        <mxCell id="ZKemoDgkjOs0aR_X4RYM-23" value="1" style="text;html=1;align=center;verticalAlign=middle;resizable=0;points=[];autosize=1;strokeColor=none;fillColor=none;" parent="1" vertex="1">
          <mxGeometry x="205" y="238" width="30" height="30" as="geometry" />
        </mxCell>
        <mxCell id="ZKemoDgkjOs0aR_X4RYM-24" value="1" style="text;html=1;align=center;verticalAlign=middle;resizable=0;points=[];autosize=1;strokeColor=none;fillColor=none;" parent="1" vertex="1">
          <mxGeometry x="425" y="278" width="30" height="30" as="geometry" />
        </mxCell>
        <mxCell id="Ss4O3-f_uqBRNf-Tpwcv-1" value="Author" style="swimlane;whiteSpace=wrap;html=1;fillColor=#fff2cc;strokeColor=#d6b656;" vertex="1" parent="1">
          <mxGeometry x="160" y="830" width="200" height="160" as="geometry">
            <mxRectangle x="320" y="210" width="90" height="30" as="alternateBounds" />
          </mxGeometry>
        </mxCell>
        <mxCell id="Ss4O3-f_uqBRNf-Tpwcv-2" value="name" style="text;html=1;align=center;verticalAlign=middle;resizable=0;points=[];autosize=1;strokeColor=none;fillColor=none;" vertex="1" parent="Ss4O3-f_uqBRNf-Tpwcv-1">
          <mxGeometry x="70" y="40" width="50" height="30" as="geometry" />
        </mxCell>
        <mxCell id="Ss4O3-f_uqBRNf-Tpwcv-3" value="nationality" style="text;html=1;align=center;verticalAlign=middle;resizable=0;points=[];autosize=1;strokeColor=none;fillColor=none;" vertex="1" parent="Ss4O3-f_uqBRNf-Tpwcv-1">
          <mxGeometry x="55" y="80" width="80" height="30" as="geometry" />
        </mxCell>
        <mxCell id="Ss4O3-f_uqBRNf-Tpwcv-4" value="subject" style="text;html=1;align=center;verticalAlign=middle;resizable=0;points=[];autosize=1;strokeColor=none;fillColor=none;" vertex="1" parent="Ss4O3-f_uqBRNf-Tpwcv-1">
          <mxGeometry x="70" y="120" width="60" height="30" as="geometry" />
        </mxCell>
        <mxCell id="Ss4O3-f_uqBRNf-Tpwcv-5" value="Director" style="swimlane;whiteSpace=wrap;html=1;fillColor=#fff2cc;strokeColor=#d6b656;startSize=23;" vertex="1" parent="1">
          <mxGeometry x="510" y="830" width="200" height="160" as="geometry">
            <mxRectangle x="320" y="210" width="90" height="30" as="alternateBounds" />
          </mxGeometry>
        </mxCell>
        <mxCell id="Ss4O3-f_uqBRNf-Tpwcv-6" value="name" style="text;html=1;align=center;verticalAlign=middle;resizable=0;points=[];autosize=1;strokeColor=none;fillColor=none;" vertex="1" parent="Ss4O3-f_uqBRNf-Tpwcv-5">
          <mxGeometry x="75" y="40" width="50" height="30" as="geometry" />
        </mxCell>
        <mxCell id="Ss4O3-f_uqBRNf-Tpwcv-7" value="nationality" style="text;html=1;align=center;verticalAlign=middle;resizable=0;points=[];autosize=1;strokeColor=none;fillColor=none;" vertex="1" parent="Ss4O3-f_uqBRNf-Tpwcv-5">
          <mxGeometry x="60" y="80" width="80" height="30" as="geometry" />
        </mxCell>
        <mxCell id="Ss4O3-f_uqBRNf-Tpwcv-8" value="style" style="text;html=1;align=center;verticalAlign=middle;resizable=0;points=[];autosize=1;strokeColor=none;fillColor=none;" vertex="1" parent="Ss4O3-f_uqBRNf-Tpwcv-5">
          <mxGeometry x="75" y="120" width="50" height="30" as="geometry" />
        </mxCell>
        <mxCell id="Ss4O3-f_uqBRNf-Tpwcv-9" value="" style="endArrow=none;html=1;rounded=0;entryX=0.5;entryY=1;entryDx=0;entryDy=0;" edge="1" parent="1" target="wTbuUublP3CUo9RuaERG-3">
          <mxGeometry width="50" height="50" relative="1" as="geometry">
            <mxPoint x="260" y="830" as="sourcePoint" />
            <mxPoint x="310" y="780" as="targetPoint" />
          </mxGeometry>
        </mxCell>
        <mxCell id="Ss4O3-f_uqBRNf-Tpwcv-10" value="" style="endArrow=none;html=1;rounded=0;entryX=0.5;entryY=1;entryDx=0;entryDy=0;" edge="1" parent="1" target="wTbuUublP3CUo9RuaERG-4">
          <mxGeometry width="50" height="50" relative="1" as="geometry">
            <mxPoint x="610" y="830" as="sourcePoint" />
            <mxPoint x="660" y="780" as="targetPoint" />
          </mxGeometry>
        </mxCell>
        <mxCell id="Ss4O3-f_uqBRNf-Tpwcv-19" value="0...*" style="text;html=1;strokeColor=none;fillColor=none;align=center;verticalAlign=middle;whiteSpace=wrap;rounded=0;" vertex="1" parent="1">
          <mxGeometry x="250" y="750" width="60" height="30" as="geometry" />
        </mxCell>
        <mxCell id="Ss4O3-f_uqBRNf-Tpwcv-20" value="0...*" style="text;html=1;strokeColor=none;fillColor=none;align=center;verticalAlign=middle;whiteSpace=wrap;rounded=0;" vertex="1" parent="1">
          <mxGeometry x="590" y="750" width="60" height="30" as="geometry" />
        </mxCell>
        <mxCell id="Ss4O3-f_uqBRNf-Tpwcv-21" value="0...*" style="text;html=1;strokeColor=none;fillColor=none;align=center;verticalAlign=middle;whiteSpace=wrap;rounded=0;" vertex="1" parent="1">
          <mxGeometry x="210" y="800" width="60" height="30" as="geometry" />
        </mxCell>
        <mxCell id="Ss4O3-f_uqBRNf-Tpwcv-22" value="0...*" style="text;html=1;strokeColor=none;fillColor=none;align=center;verticalAlign=middle;whiteSpace=wrap;rounded=0;" vertex="1" parent="1">
          <mxGeometry x="560" y="800" width="60" height="30" as="geometry" />
        </mxCell>
        <mxCell id="Ss4O3-f_uqBRNf-Tpwcv-23" value="1" style="text;html=1;strokeColor=none;fillColor=none;align=center;verticalAlign=middle;whiteSpace=wrap;rounded=0;" vertex="1" parent="1">
          <mxGeometry x="330" y="530" width="60" height="30" as="geometry" />
        </mxCell>
        <mxCell id="Ss4O3-f_uqBRNf-Tpwcv-24" value="1" style="text;html=1;strokeColor=none;fillColor=none;align=center;verticalAlign=middle;whiteSpace=wrap;rounded=0;" vertex="1" parent="1">
          <mxGeometry x="210" y="570" width="60" height="30" as="geometry" />
        </mxCell>
        <mxCell id="Ss4O3-f_uqBRNf-Tpwcv-26" value="1" style="text;html=1;strokeColor=none;fillColor=none;align=center;verticalAlign=middle;whiteSpace=wrap;rounded=0;" vertex="1" parent="1">
          <mxGeometry x="455" y="530" width="60" height="30" as="geometry" />
        </mxCell>
        <mxCell id="Ss4O3-f_uqBRNf-Tpwcv-27" value="1" style="text;html=1;strokeColor=none;fillColor=none;align=center;verticalAlign=middle;whiteSpace=wrap;rounded=0;" vertex="1" parent="1">
          <mxGeometry x="595" y="570" width="60" height="30" as="geometry" />
        </mxCell>
      </root>
    </mxGraphModel>
  </diagram>
</mxfile>
